<svg width="77" height="15" viewBox="0 0 77 15" fill="none" xmlns="http://www.w3.org/2000/svg">
<rect width="77" height="15" fill="#1E1E1E"/>
<g clip-path="url(#clip0_0_1)">
<rect x="-337" y="-14" width="428" height="926" fill="#102759"/>
<rect width="428" height="56" transform="translate(-337 -14)" fill="#0F2658"/>
<path opacity="0.35" d="M49.2705 3.09098C49.2705 1.89436 50.2406 0.924316 51.4372 0.924316H71.2132C72.4098 0.924316 73.3798 1.89437 73.3798 3.09098V12.1819C73.3798 13.3785 72.4098 14.3486 71.2132 14.3486H51.4372C50.2406 14.3486 49.2705 13.3785 49.2705 12.1819V3.09098Z" stroke="white"/>
<path opacity="0.4" d="M75.0212 5.09094V10.1819C75.9397 9.75068 76.537 8.74766 76.537 7.6364C76.537 6.52514 75.9397 5.52211 75.0212 5.09094Z" fill="white"/>
<path d="M51.0532 4.30306C51.0532 3.56668 51.6502 2.96973 52.3866 2.96973H70.2639C71.0003 2.96973 71.5972 3.56668 71.5972 4.30306V10.9697C71.5972 11.7061 71.0003 12.3031 70.2639 12.3031H52.3866C51.6502 12.3031 51.0532 11.7061 51.0532 10.9697V4.30306Z" fill="white"/>
<path fill-rule="evenodd" clip-rule="evenodd" d="M34.3102 3.31931C36.8392 3.31944 39.2716 4.40309 41.1045 6.34628C41.2425 6.49631 41.4631 6.49441 41.5991 6.34204L42.9185 4.85719C42.9873 4.77991 43.0257 4.67523 43.0251 4.56631C43.0245 4.45739 42.9851 4.35321 42.9154 4.27683C38.1046 -0.864412 30.5149 -0.864412 25.7041 4.27683C25.6344 4.35315 25.5949 4.4573 25.5942 4.56622C25.5936 4.67514 25.6319 4.77985 25.7007 4.85719L27.0205 6.34204C27.1563 6.49464 27.3771 6.49654 27.515 6.34628C29.3482 4.40296 31.7808 3.31931 34.3102 3.31931ZM34.3102 8.15016C35.6997 8.15007 37.0397 8.72602 38.0697 9.7661C38.209 9.91371 38.4285 9.91051 38.5643 9.75889L39.8821 8.27404C39.9515 8.19616 39.9901 8.0905 39.9891 7.98071C39.9881 7.87092 39.9476 7.76616 39.8768 7.68986C36.7402 4.43628 31.8828 4.43628 28.7462 7.68986C28.6753 7.76615 28.6349 7.87097 28.6339 7.9808C28.633 8.09062 28.6717 8.19627 28.7412 8.27404L30.0587 9.75889C30.1945 9.91051 30.4139 9.91371 30.5533 9.7661C31.5826 8.72671 32.9215 8.1508 34.3102 8.15016ZM36.9501 11.4005C36.9521 11.5106 36.9133 11.6167 36.8428 11.6939L34.5631 14.2593C34.4963 14.3346 34.4052 14.3771 34.3102 14.3771C34.2151 14.3771 34.124 14.3346 34.0572 14.2593L31.7772 11.6939C31.7067 11.6167 31.668 11.5105 31.6701 11.4004C31.6722 11.2903 31.7149 11.186 31.7882 11.1122C33.244 9.7391 35.3763 9.7391 36.8321 11.1122C36.9054 11.1861 36.948 11.2904 36.9501 11.4005Z" fill="white"/>
<path fill-rule="evenodd" clip-rule="evenodd" d="M18.7154 0.848511H17.5741C16.9438 0.848511 16.4328 1.41833 16.4328 2.12124V13.1515C16.4328 13.8544 16.9438 14.4243 17.5741 14.4243H18.7154C19.3458 14.4243 19.8568 13.8544 19.8568 13.1515V2.12124C19.8568 1.41833 19.3458 0.848511 18.7154 0.848511ZM12.2479 3.81821H13.3892C14.0196 3.81821 14.5305 4.38803 14.5305 5.09093V13.1515C14.5305 13.8544 14.0196 14.4243 13.3892 14.4243H12.2479C11.6175 14.4243 11.1065 13.8544 11.1065 13.1515V5.09093C11.1065 4.38803 11.6175 3.81821 12.2479 3.81821ZM8.06299 6.7879H6.92166C6.29131 6.7879 5.78032 7.35772 5.78032 8.06063V13.1515C5.78032 13.8544 6.29131 14.4243 6.92166 14.4243H8.06299C8.69333 14.4243 9.20432 13.8544 9.20432 13.1515V8.06063C9.20432 7.35772 8.69333 6.7879 8.06299 6.7879ZM2.73677 9.33336H1.59543C0.965092 9.33336 0.454102 9.90318 0.454102 10.6061V13.1515C0.454102 13.8544 0.965092 14.4243 1.59543 14.4243H2.73677C3.36711 14.4243 3.8781 13.8544 3.8781 13.1515V10.6061C3.8781 9.90318 3.36711 9.33336 2.73677 9.33336Z" fill="white"/>
</g>
<defs>
<clipPath id="clip0_0_1">
<rect width="428" height="926" fill="white" transform="translate(-337 -14)"/>
</clipPath>
</defs>
</svg>
